%FSLAX35Y35*%
%MOIN*%
G04 EasyPC Gerber Version 18.0.8 Build 3632 *
%ADD77C,0.00500*%
%ADD132C,0.10000*%
X0Y0D02*
D02*
D77*
X22077Y15243D02*
X23639Y18993D01*
X25202Y15243*
X22702Y16805D02*
X24577D01*
X24045Y247526D02*
X25608Y251276D01*
X27170Y247526*
X24670Y249089D02*
X26545D01*
X25876Y170479D02*
Y174229D01*
Y172354D02*
X26813D01*
X29001Y174229*
X26813Y172354D02*
X29001Y170479D01*
X26014Y139258D02*
Y143008D01*
Y141133D02*
X26951D01*
X29139Y143008*
X26951Y141133D02*
X29139Y139258D01*
X29813Y101581D02*
Y105331D01*
Y103456D02*
X30750D01*
X32938Y105331*
X30750Y103456D02*
X32938Y101581D01*
X29951Y70361D02*
Y74111D01*
Y72236D02*
X30888D01*
X33076Y74111*
X30888Y72236D02*
X33076Y70361D01*
X57660Y68491D02*
X58910D01*
X58285D02*
Y72241D01*
X57660D02*
X58910D01*
X57660Y78136D02*
X58910D01*
X58285D02*
Y81886D01*
X57660D02*
X58910D01*
X57660Y88176D02*
X58910D01*
X58285D02*
Y91926D01*
X57660D02*
X58910D01*
X57660Y124002D02*
X58910D01*
X58285D02*
Y127752D01*
X57660D02*
X58910D01*
X57660Y133648D02*
X58910D01*
X58285D02*
Y137398D01*
X57660D02*
X58910D01*
X57660Y143687D02*
X58910D01*
X58285D02*
Y147437D01*
X57660D02*
X58910D01*
X67215Y201975D02*
Y205725D01*
Y203850D02*
X68152D01*
X70340Y205725*
X68152Y203850D02*
X70340Y201975D01*
X67352Y170754D02*
Y174504D01*
Y172630D02*
X68290D01*
X70478Y174504*
X68290Y172630D02*
X70478Y170754D01*
X71289Y34928D02*
Y38678D01*
Y36803D02*
X72227D01*
X74415Y38678*
X72227Y36803D02*
X74415Y34928D01*
X86250Y55892D02*
Y59642D01*
Y57767D02*
X89375D01*
Y55892D02*
Y59642D01*
X86250Y100676D02*
Y104426D01*
Y102551D02*
X89375D01*
Y100676D02*
Y104426D01*
X86250Y111404D02*
Y115154D01*
Y113279D02*
X89375D01*
Y111404D02*
Y115154D01*
X86250Y156187D02*
Y159937D01*
Y158063D02*
X89375D01*
Y156187D02*
Y159937D01*
X102510Y35065D02*
Y38815D01*
Y36941D02*
X103447D01*
X105635Y38815*
X103447Y36941D02*
X105635Y35065D01*
X114943Y68491D02*
X116193D01*
X115569D02*
Y72241D01*
X114943D02*
X116193D01*
X114943Y87782D02*
X116193D01*
X115569D02*
Y91532D01*
X114943D02*
X116193D01*
X114943Y124002D02*
X116193D01*
X115569D02*
Y127752D01*
X114943D02*
X116193D01*
X114943Y143294D02*
X116193D01*
X115569D02*
Y147044D01*
X114943D02*
X116193D01*
X123083Y185624D02*
X124021D01*
Y185311*
X123708Y184687*
X123396Y184374*
X122771Y184061*
X122146*
X121521Y184374*
X121208Y184687*
X120896Y185311*
Y186561*
X121208Y187187*
X121521Y187499*
X122146Y187811*
X122771*
X123396Y187499*
X123708Y187187*
X124021Y186561*
X123083Y215624D02*
X124021D01*
Y215311*
X123708Y214687*
X123396Y214374*
X122771Y214061*
X122146*
X121521Y214374*
X121208Y214687*
X120896Y215311*
Y216561*
X121208Y217187*
X121521Y217499*
X122146Y217811*
X122771*
X123396Y217499*
X123708Y217187*
X124021Y216561*
X150817Y68151D02*
X151130Y67839D01*
X151754Y67526*
X152380Y67839*
X152692Y68151*
Y71276*
X153317*
X152692D02*
X151442D01*
X150817Y78151D02*
X151130Y77839D01*
X151754Y77526*
X152380Y77839*
X152692Y78151*
Y81276*
X153317*
X152692D02*
X151442D01*
X150817Y88151D02*
X151130Y87839D01*
X151754Y87526*
X152380Y87839*
X152692Y88151*
Y91276*
X153317*
X152692D02*
X151442D01*
X150817Y98151D02*
X151130Y97839D01*
X151754Y97526*
X152380Y97839*
X152692Y98151*
Y101276*
X153317*
X152692D02*
X151442D01*
X150817Y108151D02*
X151130Y107839D01*
X151754Y107526*
X152380Y107839*
X152692Y108151*
Y111276*
X153317*
X152692D02*
X151442D01*
X150817Y118151D02*
X151130Y117839D01*
X151754Y117526*
X152380Y117839*
X152692Y118151*
Y121276*
X153317*
X152692D02*
X151442D01*
X150817Y128151D02*
X151130Y127839D01*
X151754Y127526*
X152380Y127839*
X152692Y128151*
Y131276*
X153317*
X152692D02*
X151442D01*
X150817Y138151D02*
X151130Y137839D01*
X151754Y137526*
X152380Y137839*
X152692Y138151*
Y141276*
X153317*
X152692D02*
X151442D01*
X150817Y148151D02*
X151130Y147839D01*
X151754Y147526*
X152380Y147839*
X152692Y148151*
Y151276*
X153317*
X152692D02*
X151442D01*
X186147Y58939D02*
X185834Y58626D01*
X185209Y58313*
X184272*
X183647Y58626*
X183334Y58939*
X183022Y59563*
Y60813*
X183334Y61439*
X183647Y61751*
X184272Y62063*
X185209*
X185834Y61751*
X186147Y61439*
Y68939D02*
X185834Y68626D01*
X185209Y68313*
X184272*
X183647Y68626*
X183334Y68939*
X183022Y69563*
Y70813*
X183334Y71439*
X183647Y71751*
X184272Y72063*
X185209*
X185834Y71751*
X186147Y71439*
Y78939D02*
X185834Y78626D01*
X185209Y78313*
X184272*
X183647Y78626*
X183334Y78939*
X183022Y79563*
Y80813*
X183334Y81439*
X183647Y81751*
X184272Y82063*
X185209*
X185834Y81751*
X186147Y81439*
Y88939D02*
X185834Y88626D01*
X185209Y88313*
X184272*
X183647Y88626*
X183334Y88939*
X183022Y89563*
Y90813*
X183334Y91439*
X183647Y91751*
X184272Y92063*
X185209*
X185834Y91751*
X186147Y91439*
Y98939D02*
X185834Y98626D01*
X185209Y98313*
X184272*
X183647Y98626*
X183334Y98939*
X183022Y99563*
Y100813*
X183334Y101439*
X183647Y101751*
X184272Y102063*
X185209*
X185834Y101751*
X186147Y101439*
Y108939D02*
X185834Y108626D01*
X185209Y108313*
X184272*
X183647Y108626*
X183334Y108939*
X183022Y109563*
Y110813*
X183334Y111439*
X183647Y111751*
X184272Y112063*
X185209*
X185834Y111751*
X186147Y111439*
Y118939D02*
X185834Y118626D01*
X185209Y118313*
X184272*
X183647Y118626*
X183334Y118939*
X183022Y119563*
Y120813*
X183334Y121439*
X183647Y121751*
X184272Y122063*
X185209*
X185834Y121751*
X186147Y121439*
Y128939D02*
X185834Y128626D01*
X185209Y128313*
X184272*
X183647Y128626*
X183334Y128939*
X183022Y129563*
Y130813*
X183334Y131439*
X183647Y131751*
X184272Y132063*
X185209*
X185834Y131751*
X186147Y131439*
Y138939D02*
X185834Y138626D01*
X185209Y138313*
X184272*
X183647Y138626*
X183334Y138939*
X183022Y139563*
Y140813*
X183334Y141439*
X183647Y141751*
X184272Y142063*
X185209*
X185834Y141751*
X186147Y141439*
Y148939D02*
X185834Y148626D01*
X185209Y148313*
X184272*
X183647Y148626*
X183334Y148939*
X183022Y149563*
Y150813*
X183334Y151439*
X183647Y151751*
X184272Y152063*
X185209*
X185834Y151751*
X186147Y151439*
X183100Y216660D02*
X184663Y220410D01*
X186226Y216660*
X183726Y218222D02*
X185600D01*
X183100Y226660D02*
X184663Y230410D01*
X186226Y226660*
X183726Y228222D02*
X185600D01*
X199242Y34928D02*
Y38678D01*
Y36803D02*
X200180D01*
X202367Y38678*
X200180Y36803D02*
X202367Y34928D01*
X216147Y58939D02*
X215834Y58626D01*
X215209Y58313*
X214272*
X213647Y58626*
X213334Y58939*
X213022Y59563*
Y60813*
X213334Y61439*
X213647Y61751*
X214272Y62063*
X215209*
X215834Y61751*
X216147Y61439*
Y68939D02*
X215834Y68626D01*
X215209Y68313*
X214272*
X213647Y68626*
X213334Y68939*
X213022Y69563*
Y70813*
X213334Y71439*
X213647Y71751*
X214272Y72063*
X215209*
X215834Y71751*
X216147Y71439*
Y78939D02*
X215834Y78626D01*
X215209Y78313*
X214272*
X213647Y78626*
X213334Y78939*
X213022Y79563*
Y80813*
X213334Y81439*
X213647Y81751*
X214272Y82063*
X215209*
X215834Y81751*
X216147Y81439*
Y88939D02*
X215834Y88626D01*
X215209Y88313*
X214272*
X213647Y88626*
X213334Y88939*
X213022Y89563*
Y90813*
X213334Y91439*
X213647Y91751*
X214272Y92063*
X215209*
X215834Y91751*
X216147Y91439*
Y98939D02*
X215834Y98626D01*
X215209Y98313*
X214272*
X213647Y98626*
X213334Y98939*
X213022Y99563*
Y100813*
X213334Y101439*
X213647Y101751*
X214272Y102063*
X215209*
X215834Y101751*
X216147Y101439*
Y108939D02*
X215834Y108626D01*
X215209Y108313*
X214272*
X213647Y108626*
X213334Y108939*
X213022Y109563*
Y110813*
X213334Y111439*
X213647Y111751*
X214272Y112063*
X215209*
X215834Y111751*
X216147Y111439*
Y118939D02*
X215834Y118626D01*
X215209Y118313*
X214272*
X213647Y118626*
X213334Y118939*
X213022Y119563*
Y120813*
X213334Y121439*
X213647Y121751*
X214272Y122063*
X215209*
X215834Y121751*
X216147Y121439*
Y128939D02*
X215834Y128626D01*
X215209Y128313*
X214272*
X213647Y128626*
X213334Y128939*
X213022Y129563*
Y130813*
X213334Y131439*
X213647Y131751*
X214272Y132063*
X215209*
X215834Y131751*
X216147Y131439*
Y138939D02*
X215834Y138626D01*
X215209Y138313*
X214272*
X213647Y138626*
X213334Y138939*
X213022Y139563*
Y140813*
X213334Y141439*
X213647Y141751*
X214272Y142063*
X215209*
X215834Y141751*
X216147Y141439*
Y148939D02*
X215834Y148626D01*
X215209Y148313*
X214272*
X213647Y148626*
X213334Y148939*
X213022Y149563*
Y150813*
X213334Y151439*
X213647Y151751*
X214272Y152063*
X215209*
X215834Y151751*
X216147Y151439*
X213100Y216660D02*
X214663Y220410D01*
X216226Y216660*
X213726Y218222D02*
X215600D01*
X213100Y226660D02*
X214663Y230410D01*
X216226Y226660*
X213726Y228222D02*
X215600D01*
X230463Y35065D02*
Y38815D01*
Y36941D02*
X231400D01*
X233588Y38815*
X231400Y36941D02*
X233588Y35065D01*
X232313Y68939D02*
X232626Y68626D01*
X233250Y68313*
X233876Y68626*
X234188Y68939*
Y72063*
X234813*
X234188D02*
X232938D01*
X232313Y78939D02*
X232626Y78626D01*
X233250Y78313*
X233876Y78626*
X234188Y78939*
Y82063*
X234813*
X234188D02*
X232938D01*
X232313Y88939D02*
X232626Y88626D01*
X233250Y88313*
X233876Y88626*
X234188Y88939*
Y92063*
X234813*
X234188D02*
X232938D01*
X232313Y98939D02*
X232626Y98626D01*
X233250Y98313*
X233876Y98626*
X234188Y98939*
Y102063*
X234813*
X234188D02*
X232938D01*
X232313Y108939D02*
X232626Y108626D01*
X233250Y108313*
X233876Y108626*
X234188Y108939*
Y112063*
X234813*
X234188D02*
X232938D01*
X232313Y118939D02*
X232626Y118626D01*
X233250Y118313*
X233876Y118626*
X234188Y118939*
Y122063*
X234813*
X234188D02*
X232938D01*
X232313Y128939D02*
X232626Y128626D01*
X233250Y128313*
X233876Y128626*
X234188Y128939*
Y132063*
X234813*
X234188D02*
X232938D01*
X232313Y138939D02*
X232626Y138626D01*
X233250Y138313*
X233876Y138626*
X234188Y138939*
Y142063*
X234813*
X234188D02*
X232938D01*
X232313Y148939D02*
X232626Y148626D01*
X233250Y148313*
X233876Y148626*
X234188Y148939*
Y152063*
X234813*
X234188D02*
X232938D01*
X249951Y138471D02*
X251513Y142221D01*
X253076Y138471*
X250576Y140033D02*
X252451D01*
X249951Y148471D02*
X251513Y152221D01*
X253076Y148471*
X250576Y150033D02*
X252451D01*
X258831Y194364D02*
X259769D01*
Y194052*
X259456Y193427*
X259144Y193114*
X258519Y192802*
X257894*
X257269Y193114*
X256956Y193427*
X256644Y194052*
Y195302*
X256956Y195927*
X257269Y196239*
X257894Y196552*
X258519*
X259144Y196239*
X259456Y195927*
X259769Y195302*
X258831Y224364D02*
X259769D01*
Y224052*
X259456Y223427*
X259144Y223114*
X258519Y222802*
X257894*
X257269Y223114*
X256956Y223427*
X256644Y224052*
Y225302*
X256956Y225927*
X257269Y226239*
X257894Y226552*
X258519*
X259144Y226239*
X259456Y225927*
X259769Y225302*
X279951Y138471D02*
X281513Y142221D01*
X283076Y138471*
X280576Y140033D02*
X282451D01*
X279951Y148471D02*
X281513Y152221D01*
X283076Y148471*
X280576Y150033D02*
X282451D01*
X299951Y85321D02*
Y89071D01*
X301826*
X302451Y88759*
X302763Y88446*
X303076Y87821*
Y86571*
X302763Y85946*
X302451Y85634*
X301826Y85321*
X299951*
Y95321D02*
Y99071D01*
X301826*
X302451Y98759*
X302763Y98446*
X303076Y97821*
Y96571*
X302763Y95946*
X302451Y95634*
X301826Y95321*
X299951*
Y105321D02*
Y109071D01*
X301826*
X302451Y108759*
X302763Y108446*
X303076Y107821*
Y106571*
X302763Y105946*
X302451Y105634*
X301826Y105321*
X299951*
X300738Y35715D02*
Y39465D01*
X302613*
X303238Y39153*
X303551Y38840*
X303863Y38215*
Y36965*
X303551Y36340*
X303238Y36028*
X302613Y35715*
X300738*
Y45715D02*
Y49465D01*
X302613*
X303238Y49153*
X303551Y48840*
X303863Y48215*
Y46965*
X303551Y46340*
X303238Y46028*
X302613Y45715*
X300738*
Y55715D02*
Y59465D01*
X302613*
X303238Y59153*
X303551Y58840*
X303863Y58215*
Y56965*
X303551Y56340*
X303238Y56028*
X302613Y55715*
X300738*
X310266Y214849D02*
Y218599D01*
Y216724D02*
X311203D01*
X313391Y218599*
X311203Y216724D02*
X313391Y214849D01*
X310404Y183628D02*
Y187378D01*
Y185504D02*
X311341D01*
X313529Y187378*
X311341Y185504D02*
X313529Y183628D01*
X329951Y85321D02*
Y89071D01*
X331826*
X332451Y88759*
X332763Y88446*
X333076Y87821*
Y86571*
X332763Y85946*
X332451Y85634*
X331826Y85321*
X329951*
Y95321D02*
Y99071D01*
X331826*
X332451Y98759*
X332763Y98446*
X333076Y97821*
Y96571*
X332763Y95946*
X332451Y95634*
X331826Y95321*
X329951*
Y105321D02*
Y109071D01*
X331826*
X332451Y108759*
X332763Y108446*
X333076Y107821*
Y106571*
X332763Y105946*
X332451Y105634*
X331826Y105321*
X329951*
X330738Y35715D02*
Y39465D01*
X332613*
X333238Y39153*
X333551Y38840*
X333863Y38215*
Y36965*
X333551Y36340*
X333238Y36028*
X332613Y35715*
X330738*
Y45715D02*
Y49465D01*
X332613*
X333238Y49153*
X333551Y48840*
X333863Y48215*
Y46965*
X333551Y46340*
X333238Y46028*
X332613Y45715*
X330738*
Y55715D02*
Y59465D01*
X332613*
X333238Y59153*
X333551Y58840*
X333863Y58215*
Y56965*
X333551Y56340*
X333238Y56028*
X332613Y55715*
X330738*
X336644Y187290D02*
Y191040D01*
X339769*
X339144Y189165D02*
X336644D01*
Y220754D02*
Y224504D01*
X339769*
X339144Y222630D02*
X336644D01*
X366644Y190754D02*
Y194504D01*
X369769*
X369144Y192630D02*
X366644D01*
Y190754D02*
X369769D01*
X428831Y83630D02*
X429456Y83317D01*
X429769Y82692*
X429456Y82067*
X428831Y81754*
X426644*
Y85504*
X428831*
X429456Y85192*
X429769Y84567*
X429456Y83942*
X428831Y83630*
X426644*
X428831Y103630D02*
X429456Y103317D01*
X429769Y102692*
X429456Y102067*
X428831Y101754*
X426644*
Y105504*
X428831*
X429456Y105192*
X429769Y104567*
X429456Y103942*
X428831Y103630*
X426644*
X428831Y123630D02*
X429456Y123317D01*
X429769Y122692*
X429456Y122067*
X428831Y121754*
X426644*
Y125504*
X428831*
X429456Y125192*
X429769Y124567*
X429456Y123942*
X428831Y123630*
X426644*
X428831Y143630D02*
X429456Y143317D01*
X429769Y142692*
X429456Y142067*
X428831Y141754*
X426644*
Y145504*
X428831*
X429456Y145192*
X429769Y144567*
X429456Y143942*
X428831Y143630*
X426644*
X436644Y190754D02*
Y194504D01*
X439769*
X439144Y192630D02*
X436644D01*
Y190754D02*
X439769D01*
X478770Y15243D02*
X480332Y18993D01*
X481895Y15243*
X479395Y16805D02*
X481270D01*
X478770Y248707D02*
X480332Y252457D01*
X481895Y248707*
X479395Y250270D02*
X481270D01*
D02*
D132*
X12077Y9305D03*
X14045Y241589D03*
X15876Y164541D03*
X16014Y133321D03*
X19813Y95644D03*
X19951Y64423D03*
X46722Y62553D03*
Y72199D03*
Y82238D03*
Y118065D03*
Y127711D03*
Y137750D03*
X57215Y196037D03*
X57352Y164817D03*
X61289Y28990D03*
X76250Y49955D03*
Y94738D03*
Y105467D03*
Y150250D03*
X92510Y29128D03*
X104006Y62553D03*
Y81844D03*
Y118065D03*
Y137356D03*
X110896Y178124D03*
Y208124D03*
X140817Y61589D03*
Y71589D03*
Y81589D03*
Y91589D03*
Y101589D03*
Y111589D03*
Y121589D03*
Y131589D03*
Y141589D03*
X173022Y52376D03*
Y62376D03*
Y72376D03*
Y82376D03*
Y92376D03*
Y102376D03*
Y112376D03*
Y122376D03*
Y132376D03*
Y142376D03*
X173100Y210722D03*
Y220722D03*
X189242Y28990D03*
X203022Y52376D03*
Y62376D03*
Y72376D03*
Y82376D03*
Y92376D03*
Y102376D03*
Y112376D03*
Y122376D03*
Y132376D03*
Y142376D03*
X203100Y210722D03*
Y220722D03*
X220463Y29128D03*
X222313Y62376D03*
Y72376D03*
Y82376D03*
Y92376D03*
Y102376D03*
Y112376D03*
Y122376D03*
Y132376D03*
Y142376D03*
X239951Y132533D03*
Y142533D03*
X246644Y186864D03*
Y216864D03*
X269951Y132533D03*
Y142533D03*
X289951Y79384D03*
Y89384D03*
Y99384D03*
X290738Y29778D03*
Y39778D03*
Y49778D03*
X300266Y208911D03*
X300404Y177691D03*
X319951Y79384D03*
Y89384D03*
Y99384D03*
X320738Y29778D03*
Y39778D03*
Y49778D03*
X326644Y181352D03*
Y214817D03*
X356644Y184817D03*
X416644Y75817D03*
Y95817D03*
Y115817D03*
Y135817D03*
X426644Y184817D03*
X468770Y9305D03*
Y242770D03*
X0Y0D02*
M02*
