%FSLAX35Y35*%
%MOIN*%
G04 EasyPC Gerber Version 18.0.8 Build 3632 *
%ADD80C,0.00300*%
%ADD77C,0.00500*%
%ADD79C,0.00600*%
%ADD81C,0.00800*%
%ADD78C,0.02000*%
X0Y0D02*
D02*
D77*
X5313Y143194D02*
X1563D01*
Y145382*
X1875Y146007*
X2500Y146320*
X3125Y146007*
X3437Y145382*
Y143194*
Y145382D02*
X5313Y146320D01*
X5000Y148507D02*
X5313Y149132D01*
Y149757*
X5000Y150382*
X4375Y150694*
X3750Y150382*
X3437Y149757*
Y149132*
Y149757D02*
X3125Y150382D01*
X2500Y150694*
X1875Y150382*
X1563Y149757*
Y149132*
X1875Y148507*
X5313Y153194D02*
X1563Y155694D01*
Y153194*
X9250Y74297D02*
X5500D01*
Y76484*
X5812Y77109*
X6437Y77422*
X7062Y77109*
X7374Y76484*
Y74297*
Y76484D02*
X9250Y77422D01*
Y81797D02*
Y79297D01*
X7062Y81484*
X6437Y81797*
X5812Y81484*
X5500Y80859*
Y79922*
X5812Y79297*
X9250Y84297D02*
X5500Y86797D01*
Y84297*
X46651Y174691D02*
X42901D01*
Y176878*
X43213Y177503*
X43839Y177816*
X44463Y177503*
X44776Y176878*
Y174691*
Y176878D02*
X46651Y177816D01*
Y182191D02*
Y179691D01*
X44463Y181878*
X43839Y182191*
X43213Y181878*
X42901Y181253*
Y180316*
X43213Y179691*
X45713Y184691D02*
X45089Y185003D01*
X44776Y185628*
Y186253*
X45089Y186878*
X45713Y187191*
X46339Y186878*
X46651Y186253*
Y185628*
X46339Y185003*
X45713Y184691*
X44776*
X43839Y185003*
X43213Y185628*
X42901Y186253*
X71163Y39691D02*
Y43441D01*
X73350*
X73976Y43129*
X74288Y42504*
X73976Y41879*
X73350Y41567*
X71163*
X73350D02*
X74288Y39691D01*
X76476Y40004D02*
X77100Y39691D01*
X77726*
X78350Y40004*
X78663Y40629*
X78350Y41254*
X77726Y41567*
X77100*
X77726D02*
X78350Y41879D01*
X78663Y42504*
X78350Y43129*
X77726Y43441*
X77100*
X76476Y43129*
X82100Y41567D02*
X82726D01*
X83350Y41879*
X83663Y42504*
X83350Y43129*
X82726Y43441*
X82100*
X81476Y43129*
X81163Y42504*
X81476Y41879*
X82100Y41567*
X81476Y41254*
X81163Y40629*
X81476Y40004*
X82100Y39691*
X82726*
X83350Y40004*
X83663Y40629*
X83350Y41254*
X82726Y41567*
X84458Y206999D02*
X84146Y207311D01*
X83833Y207937*
Y208874*
X84146Y209499*
X84458Y209811*
X85083Y210124*
X86333*
X86958Y209811*
X87271Y209499*
X87583Y208874*
Y207937*
X87271Y207311*
X86958Y206999*
X84146Y205124D02*
X83833Y204499D01*
Y203561*
X84146Y202937*
X84771Y202624*
X85083*
X85708Y202937*
X86021Y203561*
Y205124*
X87583*
Y202624*
X118083Y178124D02*
Y175624D01*
Y209374D02*
Y206874D01*
X116833Y208124D02*
X119333D01*
X145896Y193124D02*
G75*
G03X75896I-35000D01*
G01*
G75*
G03X145896I35000*
G01*
X181538Y199160D02*
X182788D01*
X182163D02*
Y202910D01*
X181538D02*
X182788D01*
X188726Y199785D02*
X188413Y199472D01*
X187788Y199160*
X186850*
X186226Y199472*
X185913Y199785*
X185600Y200410*
Y201660*
X185913Y202285*
X186226Y202598*
X186850Y202910*
X187788*
X188413Y202598*
X188726Y202285*
X193100Y199160D02*
X190600D01*
X192788Y201348*
X193100Y201972*
X192788Y202598*
X192163Y202910*
X191226*
X190600Y202598*
X183100Y205722D02*
Y223222D01*
X185600*
X188100Y220722*
X190600Y223222*
X193100*
Y205722*
X183100*
X185322Y169330D02*
G75*
G03X181186Y165194I-13797J9661D01*
G01*
X186489Y159891*
X190626Y164026*
X185322Y169330*
X195556Y195833D02*
X191806D01*
Y192707*
Y190207D02*
Y188957D01*
Y189583D02*
X195556D01*
X194931Y190207*
X199116Y39691D02*
Y43441D01*
X201303*
X201928Y43129*
X202241Y42504*
X201928Y41879*
X201303Y41567*
X199116*
X201303D02*
X202241Y39691D01*
X204741D02*
X205991D01*
X205366D02*
Y43441D01*
X204741Y42817*
X210053Y41567D02*
X210678D01*
X211303Y41879*
X211616Y42504*
X211303Y43129*
X210678Y43441*
X210053*
X209428Y43129*
X209116Y42504*
X209428Y41879*
X210053Y41567*
X209428Y41254*
X209116Y40629*
X209428Y40004*
X210053Y39691*
X210678*
X211303Y40004*
X211616Y40629*
X211303Y41254*
X210678Y41567*
X211644Y201864D02*
G75*
G03X281644I35000D01*
G01*
G75*
G03X211644I-35000*
G01*
X239456Y185614D02*
Y188114D01*
X240706Y186864D02*
X238206D01*
X239456Y216864D02*
Y219364D01*
X259951Y147533D02*
Y130033D01*
X257451*
X254951Y132533*
X252451Y130033*
X249951*
Y147533*
X259951*
X261513Y154096D02*
X260263D01*
X260888D02*
Y150346D01*
X261513D02*
X260263D01*
X254326Y153471D02*
X254638Y153783D01*
X255263Y154096*
X256201*
X256826Y153783*
X257138Y153471*
X257451Y152846*
Y151596*
X257138Y150971*
X256826Y150658*
X256201Y150346*
X255263*
X254638Y150658*
X254326Y150971*
X251826Y154096D02*
X250576D01*
X251201D02*
Y150346D01*
X251826Y150971*
X273081Y192745D02*
X273394Y192433D01*
X273706Y191807*
Y190870*
X273394Y190245*
X273081Y189933*
X272456Y189620*
X271206*
X270581Y189933*
X270269Y190245*
X269956Y190870*
Y191807*
X270269Y192433*
X270581Y192745*
X272769Y194620D02*
X272144Y194933D01*
X271831Y195557*
Y196183*
X272144Y196807*
X272769Y197120*
X273394Y196807*
X273706Y196183*
Y195557*
X273394Y194933*
X272769Y194620*
X271831*
X270894Y194933*
X270269Y195557*
X269956Y196183*
X310967Y199038D02*
X314717D01*
Y196850*
X314405Y196225*
X313780Y195913*
X313155Y196225*
X312842Y196850*
Y199038*
Y196850D02*
X310967Y195913D01*
Y191538D02*
Y194038D01*
X313155Y191850*
X313780Y191538*
X314405Y191850*
X314717Y192475*
Y193413*
X314405Y194038*
X310967Y186538D02*
Y189038D01*
X313155Y186850*
X313780Y186538*
X314405Y186850*
X314717Y187475*
Y188413*
X314405Y189038*
X364144Y208880D02*
Y205130D01*
X361019*
X361644Y207004D02*
X364144D01*
X359144Y207942D02*
X358831Y208567D01*
X358206Y208880*
X356956*
X356331Y208567*
X356019Y207942*
X356331Y207317*
X356956Y207004*
X358206*
X358831Y206692*
X359144Y206067*
X358831Y205442*
X358206Y205130*
X356956*
X356331Y205442*
X356019Y206067*
X353519Y208880D02*
X352269D01*
X352894D02*
Y205130D01*
X353519Y205754*
X429144Y177317D02*
Y167317D01*
X354144*
Y177317*
X429144Y192317D02*
Y202317D01*
X354144*
Y192317*
D02*
D78*
X165522Y53876D02*
G75*
G03Y50876J-1500D01*
G01*
G75*
G03Y53876J1500*
G01*
X410636Y135972D02*
G75*
G03X409144Y134317I-1492J-155D01*
G01*
G75*
G03X410636Y135662J1500*
G01*
D02*
D79*
X144663Y57589D02*
X145817D01*
Y56589*
X135817*
Y57589*
X136971*
X145817Y56589D02*
Y146589D01*
X135817*
Y56589*
X207722Y47376D02*
Y147376D01*
X168322*
Y47376*
X207722*
X226159Y58376D02*
X227313D01*
Y57376*
X217313*
Y58376*
X218467*
X227313Y57376D02*
Y147376D01*
X217313*
Y57376*
X291951Y86082D02*
Y82685D01*
Y95524D02*
Y92685D01*
X292738Y36476D02*
Y33079D01*
Y45918D02*
Y43079D01*
X303751Y106884D02*
G75*
G03X306151I1200D01*
G01*
X304538Y57278D02*
G75*
G03X306938I1200D01*
G01*
X317951Y76082D02*
Y71884D01*
X291951*
Y76082*
X317951Y82685D02*
Y86082D01*
Y92685D02*
Y96082D01*
Y102685D02*
Y106884D01*
X291951*
Y103244*
X318738Y26476D02*
Y22278D01*
X292738*
Y26476*
X318738Y33079D02*
Y36476D01*
Y43079D02*
Y46476D01*
Y53079D02*
Y57278D01*
X292738*
Y53637*
X342392Y187233D02*
Y208937D01*
G75*
G03X326644Y224685I-15748*
G01*
G75*
G03X310896Y208937J-15748*
G01*
Y187233*
G75*
G03X342392I15748*
G01*
X400194Y151417D02*
Y64217D01*
X433094*
Y151417*
X400194*
D02*
D80*
X141754Y86589D02*
X142067Y86901D01*
X142380Y87526*
X142067Y88151*
X141754Y88464*
X138630*
Y89089*
Y88464D02*
Y87214D01*
X142067Y91901D02*
X142380Y92526D01*
Y93151*
X142067Y93776*
X141442Y94089*
X140817Y93776*
X140504Y93151*
Y92526*
Y93151D02*
X140192Y93776D01*
X139567Y94089*
X138942Y93776*
X138630Y93151*
Y92526*
X138942Y91901*
X185834Y82376D02*
X188646D01*
X189272Y82689*
X189584Y83313*
Y84563*
X189272Y85189*
X188646Y85501*
X185834*
X189272Y87376D02*
X189584Y88001D01*
Y88939*
X189272Y89563*
X188646Y89876*
X188334*
X187709Y89563*
X187396Y88939*
Y87376*
X185834*
Y89876*
X223250Y87376D02*
X223563Y87689D01*
X223876Y88313*
X223563Y88939*
X223250Y89251*
X220126*
Y89876*
Y89251D02*
Y88001D01*
X223876Y93939D02*
X220126D01*
X222626Y92376*
Y94876*
X287451Y104621D02*
X289951D01*
X288076Y103371D02*
X289326Y105871D01*
X288076D02*
X289326Y103371D01*
X288238Y55015D02*
X290738D01*
X288863Y53765D02*
X290113Y56265D01*
X288863D02*
X290113Y53765D01*
X289951Y91571D02*
Y88759D01*
X290263Y88134*
X290888Y87821*
X292138*
X292763Y88134*
X293076Y88759*
Y91571*
X297451Y87821D02*
X294951D01*
X297138Y90009*
X297451Y90634*
X297138Y91259*
X296513Y91571*
X295576*
X294951Y91259*
X290738Y41965D02*
Y39153D01*
X291051Y38528*
X291676Y38215*
X292926*
X293551Y38528*
X293863Y39153*
Y41965*
X296363Y38215D02*
X297613D01*
X296988D02*
Y41965D01*
X296363Y41340*
X328206Y183085D02*
X324456D01*
Y185272*
X324769Y185897*
X325394Y186210*
X326019Y185897*
X326331Y185272*
Y183085*
Y185272D02*
X328206Y186210D01*
Y188710D02*
Y189960D01*
Y189335D02*
X324456D01*
X325081Y188710*
X328206Y193085D02*
X324456Y195585D01*
Y193085*
X415081Y68754D02*
X418831D01*
X416331Y70317*
Y67817*
X415081Y68754D02*
X418831D01*
X416331Y70317*
Y67817*
X415706Y122817D02*
X415394Y122504D01*
X415081Y121880*
X415394Y121254*
X415706Y120942*
X418831*
Y120317*
Y120942D02*
Y122192D01*
X415081Y117192D02*
Y115942D01*
Y116567D02*
X418831D01*
X418206Y117192*
X415081Y145692D02*
Y144442D01*
Y145067D02*
X418831D01*
X418206Y145692*
X415081D02*
Y144442D01*
Y145067D02*
X418831D01*
X418206Y145692*
D02*
D81*
X16014Y143321D02*
Y138321D01*
Y160604D02*
Y155604D01*
X19951Y74423D02*
Y69423D01*
Y91707D02*
Y86707D01*
X23014Y143321D02*
Y155683D01*
X9014*
Y143321*
X23014*
X26951Y74423D02*
Y86785D01*
X12951*
Y74423*
X26951*
X57352Y174817D02*
Y169817D01*
Y192100D02*
Y187100D01*
X64352Y174817D02*
Y187179D01*
X50352*
Y174817*
X64352*
X71289Y21990D02*
X83652D01*
Y35990*
X71289*
Y21990*
Y28990D02*
X66289D01*
X88573D02*
X83573D01*
X199242Y21990D02*
X211604D01*
Y35990*
X199242*
Y21990*
Y28990D02*
X194242D01*
X216526D02*
X211526D01*
X293266Y198911D02*
Y186549D01*
X307266*
Y198911*
X293266*
X300266Y181628D02*
Y186628D01*
Y198911D02*
Y203911D01*
X0Y0D02*
M02*
